<svg xmlns="http://www.w3.org/2000/svg" xmlns:xlink="http://www.w3.org/1999/xlink" version="1.1" id="Layer_1" x="0px" y="0px" style="enable-background:new 0 0 122.88 110.41" xml:space="preserve" viewBox="0 37.23 122.89 73.19">
  <g>
    <path class="st2" fill="#E3B600" d="M32.46,68.83l8.47-29.8c0.31-1.09,1.3-1.8,2.38-1.8l0,0h36.11c1.2,0,2.2,0.86,2.43,1.99l8.69,29.76 c0.38,1.31-0.37,2.67-1.68,3.06c-0.23,0.07-0.46,0.1-0.69,0.1v0.01H34.79c-1.37,0-2.47-1.11-2.47-2.47 C32.31,69.36,32.36,69.09,32.46,68.83L32.46,68.83L32.46,68.83z"></path>
    <path class="st2" fill="#E3B600" d="M0.14,107.11l8.47-29.8c0.31-1.09,1.3-1.81,2.38-1.81l0,0h36.11c1.21,0,2.2,0.86,2.43,1.99l8.69,29.76 c0.38,1.31-0.37,2.68-1.68,3.06c-0.23,0.07-0.46,0.1-0.69,0.1v0.01H2.48c-1.37,0-2.48-1.11-2.48-2.47 C0,107.65,0.05,107.38,0.14,107.11L0.14,107.11L0.14,107.11z"></path>
    <path class="st2" fill="#E3B600" d="M64.71,107.11l8.46-29.8c0.31-1.09,1.3-1.81,2.38-1.81l0,0h36.11c1.2,0,2.2,0.86,2.43,1.99l8.7,29.76 c0.38,1.31-0.37,2.68-1.68,3.06c-0.23,0.07-0.46,0.1-0.69,0.1v0.01H67.04c-1.37,0-2.47-1.11-2.47-2.47 C64.56,107.65,64.61,107.38,64.71,107.11L64.71,107.11L64.71,107.11z"></path>
  </g>
</svg>